<svg xmlns="http://www.w3.org/2000/svg" width="24" height="24" viewBox="0 0 24 24" fill="none">
  <path fill-rule="evenodd" clip-rule="evenodd" d="M15.7071 11.293C15.8946 11.4806 15.9999 11.7349 15.9999 12C15.9999 12.2652 15.8946 12.5195 15.7071 12.707L10.0501 18.364C9.95785 18.4595 9.84751 18.5357 9.7255 18.5881C9.6035 18.6405 9.47228 18.6681 9.3395 18.6693C9.20672 18.6704 9.07504 18.6451 8.95215 18.5948C8.82925 18.5446 8.7176 18.4703 8.6237 18.3764C8.52981 18.2825 8.45556 18.1709 8.40528 18.048C8.355 17.9251 8.3297 17.7934 8.33085 17.6606C8.332 17.5278 8.35959 17.3966 8.412 17.2746C8.46441 17.1526 8.54059 17.0423 8.6361 16.95L13.5861 12L8.6361 7.05002C8.45394 6.86142 8.35315 6.60882 8.35543 6.34662C8.3577 6.08443 8.46287 5.83361 8.64828 5.64821C8.83369 5.4628 9.0845 5.35763 9.3467 5.35535C9.60889 5.35307 9.8615 5.45387 10.0501 5.63602L15.7071 11.293Z" fill="#ED1846"/>
</svg>