<svg xmlns="http://www.w3.org/2000/svg" width="64" height="64" viewBox="0 0 64 64" fill="none">
  <path fill-rule="evenodd" clip-rule="evenodd" d="M25.5637 4.40533C27.6237 3.68533 30.0303 3 31.9997 3C33.969 3 36.3757 3.68533 38.4357 4.40533C40.5823 5.15733 42.7023 6.07733 44.2197 6.77467C46.429 7.78933 48.073 9.86 48.3397 12.4307C48.5103 14.0573 48.6663 16.436 48.6663 19.6667C48.6663 22.8973 48.5103 25.2747 48.341 26.9027C48.3055 27.2396 48.2477 27.5671 48.1677 27.8853C49.5917 28.144 51.0877 28.6 52.4343 29.072C54.5823 29.824 56.7037 30.744 58.2197 31.4413C60.429 32.456 62.073 34.5267 62.3397 37.0973C62.5103 38.724 62.6663 41.1027 62.6663 44.3333C62.6663 47.564 62.5103 49.9413 62.341 51.5693C62.0743 54.14 60.429 56.2093 58.2197 57.2253C56.7037 57.9227 54.5823 58.8427 52.4357 59.5947C50.3757 60.3147 47.969 61 45.9997 61C44.0303 61 41.6237 60.316 39.5637 59.5947C37.417 58.8427 35.297 57.9227 33.7797 57.2253C33.1336 56.9292 32.534 56.5407 31.9997 56.072C31.469 56.5387 30.869 56.928 30.2197 57.2253C28.7037 57.9227 26.5823 58.8427 24.4357 59.5947C22.3757 60.3147 19.969 61 17.9997 61C16.0303 61 13.6237 60.316 11.5637 59.5947C9.41701 58.8427 7.29701 57.9227 5.77967 57.2253C3.57034 56.2107 1.92634 54.14 1.65967 51.5693C1.48767 49.9427 1.33301 47.564 1.33301 44.3333C1.33301 41.1027 1.48901 38.7253 1.65834 37.0973C1.92501 34.5267 3.57034 32.4573 5.77967 31.4413C7.29567 30.744 9.41701 29.824 11.5637 29.072C12.9103 28.6013 14.4077 28.1453 15.833 27.8853C15.7508 27.5626 15.6928 27.2341 15.6597 26.9027C15.489 25.276 15.333 22.8973 15.333 19.6667C15.333 16.436 15.489 14.0587 15.6583 12.4307C15.925 9.86 17.5703 7.79067 19.7797 6.77467C21.2957 6.07733 23.417 5.15733 25.5637 4.40533ZM34.6663 44.3333C34.6663 47.392 34.8143 49.5867 34.9637 51.0187C35.0197 51.5653 35.3703 52.0867 36.0077 52.3787C37.4477 53.0413 39.3997 53.8853 41.3263 54.56C42.0437 54.812 42.7183 55.024 43.333 55.1947V43.7067C42.813 43.5507 42.2663 43.3653 41.709 43.1627C40.0695 42.5519 38.4508 41.8867 36.8557 41.168C36.1303 40.8453 35.425 40.524 34.7677 40.2187C34.698 41.5891 34.6642 42.9611 34.6663 44.3333ZM48.6663 43.708V55.1947C49.281 55.024 49.9557 54.812 50.6743 54.56C52.5997 53.8867 54.5517 53.0413 55.9917 52.38C56.629 52.0867 56.9783 51.5653 57.0357 51.0187C57.185 49.5853 57.333 47.392 57.333 44.3333C57.333 42.7293 57.293 41.3627 57.2317 40.22C56.5743 40.5253 55.869 40.8467 55.1437 41.1693C53.5485 41.888 51.9298 42.5533 50.2903 43.164C49.7343 43.3667 49.1863 43.552 48.6663 43.708ZM29.333 44.3333C29.333 42.7293 29.293 41.3627 29.2317 40.22C28.5743 40.5253 27.869 40.8467 27.1437 41.1693C25.5485 41.888 23.9298 42.5533 22.2903 43.164C21.7343 43.3667 21.1863 43.552 20.6663 43.708V55.1947C21.281 55.024 21.9557 54.812 22.673 54.56C24.5997 53.8867 26.553 53.0413 27.993 52.38C28.629 52.0867 28.9797 51.5653 29.0357 51.0187C29.185 49.5853 29.333 47.392 29.333 44.3333ZM13.709 43.164C14.265 43.3667 14.813 43.552 15.333 43.708V55.1947C14.6573 55.0052 13.9881 54.7935 13.3263 54.56C11.3997 53.8867 9.44634 53.0413 8.00634 52.38C7.37034 52.0867 7.01967 51.5653 6.96367 51.0187C6.81301 49.5853 6.66634 47.392 6.66634 44.3333C6.66634 42.7293 6.70634 41.3627 6.76767 40.22C7.42501 40.5253 8.13034 40.8467 8.85567 41.1693C10.4508 41.888 12.0695 42.5533 13.709 43.164ZM20.7677 15.5533C20.698 16.9233 20.6642 18.2949 20.6663 19.6667C20.6663 22.7253 20.8143 24.92 20.9637 26.352C21.0197 26.8987 21.3703 27.42 22.0077 27.712C23.4477 28.3747 25.3997 29.2187 27.3263 29.8933C28.0437 30.1453 28.7183 30.3573 29.333 30.528V19.04C28.813 18.884 28.2663 18.6987 27.709 18.496C26.0695 17.8853 24.4508 17.22 22.8557 16.5013C22.1303 16.1787 21.425 15.8573 20.7677 15.552M36.6743 29.892C35.9543 30.144 35.281 30.356 34.6663 30.5267V19.04C35.1863 18.884 35.733 18.6987 36.2903 18.496C37.9298 17.8853 39.5485 17.22 41.1437 16.5013C41.869 16.1787 42.5743 15.8573 43.2317 15.552C43.293 16.6947 43.333 18.0613 43.333 19.6653C43.333 22.724 43.185 24.9187 43.0357 26.3507C42.9797 26.8973 42.629 27.4187 41.9917 27.7107C40.2523 28.5171 38.4777 29.2449 36.673 29.892" fill="#561111"/>
</svg>