<svg xmlns="http://www.w3.org/2000/svg" width="64" height="64" viewBox="0 0 64 64" fill="none">
  <path fill-rule="evenodd" clip-rule="evenodd" d="M38.667 14.6667C38.667 9.51212 34.4882 5.3335 29.3336 5.3335L28.8215 5.34725C23.905 5.61312 20.0002 9.684 20.0002 14.6667C20.0002 19.8215 24.179 24.0001 29.3336 24.0001L29.8457 23.9862C34.7622 23.7205 38.667 19.6496 38.667 14.6667ZM32.0002 45.3335C32.0002 48.2477 32.7794 50.9801 34.1407 53.3335H10.667V43.7335C10.667 35.9794 16.6255 29.6567 24.0899 29.3455L24.6669 29.3335H34.0002C36.4295 29.3335 38.7142 29.9699 40.7055 31.0894C35.5369 33.7417 32.0002 39.1246 32.0002 45.3335ZM40.1631 56.1204L48.0002 51.3335L55.8374 56.1204L53.7066 47.1875L60.681 41.2132L51.527 40.4794L48.0002 32.0001L44.4735 40.4794L35.3195 41.2132L42.2939 47.1875L40.1631 56.1204Z" fill="#003B46"/>
</svg>