<svg xmlns="http://www.w3.org/2000/svg" width="216" height="44" viewBox="0 0 216 44" fill="none">
  <path d="M155.811 14.2215L153.451 10.7393L152.197 10.7324V14.2215H147.5L147.486 7.15379L147.473 0.327148L154.622 0.337481C155.739 0.337481 156.776 0.613027 157.751 1.0539C159.57 1.91153 160.566 3.65436 160.535 5.65206C160.508 7.46722 159.632 9.08605 157.92 9.92301L160.849 14.2146H155.811V14.2215ZM155.77 5.52807C155.808 4.64977 155.15 3.99879 154.316 3.98501L152.197 3.95401V7.18478L154.312 7.15379C155.188 7.14001 155.846 6.44081 155.77 5.52807Z" fill="#ED1846"/>
  <path d="M173.195 13.7944C170.89 14.8001 168.264 14.7863 166 13.815C163.33 12.6681 161.717 10.1606 161.717 7.28118C161.717 4.47406 163.24 1.9976 165.818 0.812753C168.05 -0.213653 170.662 -0.261873 172.947 0.640538C175.755 1.75305 177.474 4.36729 177.433 7.36385C177.392 10.1744 175.834 12.644 173.198 13.7944H173.195ZM172.437 8.71057C172.775 7.74272 172.761 6.75075 172.433 5.82768C171.975 4.54295 170.79 3.77142 169.47 3.8162C168.192 3.85753 167.086 4.66005 166.679 5.93789C166.414 6.77142 166.403 7.65661 166.645 8.49702C167.027 9.82308 168.144 10.6945 169.467 10.7324C170.773 10.7703 171.979 10.0229 172.437 8.71057Z" fill="#ED1846"/>
  <path d="M208.413 14.1257L202.976 14.1429L199.492 9.55855L198.451 10.7262L198.455 14.1361L193.841 14.1395L193.827 7.07176L193.81 0.248565L198.451 0.245117L198.458 5.25316L202.979 0.252007H208.113L202.572 6.35534L208.413 14.1257Z" fill="#ED1846"/>
  <path d="M186.064 10.7014C187.515 10.8908 188.731 10.2192 189.586 9.08942L192.566 11.7347C190.458 14.5797 186.23 15.1686 183.039 13.9356C180.258 12.8609 178.591 10.3053 178.553 7.36382C178.515 4.42238 180.279 1.60493 183.205 0.544076C185.107 -0.144787 187.174 -0.162012 189.128 0.4063C190.509 0.850617 191.674 1.63592 192.563 2.78288L189.586 5.44878C188.766 4.36726 187.618 3.71285 186.264 3.81962C184.91 3.92639 183.904 4.69103 183.518 5.93443C183.232 6.85406 183.236 7.84258 183.566 8.74499C183.966 9.8334 184.886 10.5464 186.068 10.7014H186.064Z" fill="#ED1846"/>
  <path d="M91.2906 29.7758L88.1551 29.8102L83.9168 25.0709L83.8893 29.8033H80.1714V19.1983L83.2897 19.1914L87.5521 23.9652L87.5452 19.1949H91.2665L91.2906 29.7758Z" fill="#ED1846"/>
  <path d="M115.827 29.7959L111.751 29.8063L109.852 27.1576H108.843V29.8028H105.021V19.1943L110.821 19.2081C111.823 19.2081 112.767 19.4699 113.622 19.9004C114.88 20.5755 115.583 21.781 115.583 23.1966C115.583 24.6536 114.831 25.9142 113.467 26.5238L115.827 29.7994V29.7959ZM110.597 24.3987C111.348 24.3815 111.751 23.7856 111.734 23.1519C111.716 22.525 111.258 22.0083 110.548 21.9946L108.815 21.9636L108.832 24.44L110.597 24.3987Z" fill="#ED1846"/>
  <path d="M75.9226 29.2074C73.8518 30.3061 71.3502 30.3199 69.2586 29.3761C67.2774 28.4841 66.0783 26.6276 66.0679 24.5369C66.0576 22.4358 67.2326 20.569 69.207 19.6528C71.3088 18.6781 73.838 18.7022 75.8916 19.7768C77.7109 20.7275 78.7722 22.4944 78.7825 24.4611C78.7929 26.4278 77.7695 28.2257 75.9192 29.2074H75.9226ZM75.0267 24.499C75.0267 23.0662 73.8621 21.902 72.4252 21.902C70.9884 21.902 69.8237 23.0662 69.8237 24.499C69.8237 25.9318 70.9884 27.096 72.4252 27.096C73.8621 27.096 75.0267 25.9318 75.0267 24.499Z" fill="#ED1846"/>
  <path d="M125.451 25.6393L120.689 25.6427L120.706 27.0067L126.33 27.0101V29.7208H116.951V19.1123H126.102L126.106 21.8264H120.696L120.693 23.0492H125.451V25.6393Z" fill="#ED1846"/>
  <path d="M146.783 25.6393L142.021 25.6427L142.035 27.0067L147.662 27.0101V29.7208H138.279V19.1123H147.434V21.8264H142.028L142.025 23.0492H146.78L146.783 25.6393Z" fill="#ED1846"/>
  <path d="M97.5963 26.7277C98.9677 27.544 100.632 27.1066 101.548 25.877L103.981 27.9126C102.22 30.0687 99.1158 30.451 96.5488 29.7002C95.1981 29.2455 94.0507 28.4327 93.3374 27.1858C92.3795 25.5119 92.3933 23.4315 93.3684 21.7679C94.061 20.5865 95.1533 19.8115 96.4282 19.35C98.0063 18.8403 99.6534 18.8299 101.249 19.2846C102.32 19.6187 103.247 20.1973 103.974 21.0825L101.538 23.1284C100.539 21.7679 98.7161 21.4648 97.3758 22.4189C96.0836 23.5004 96.1973 25.8977 97.5963 26.7312V26.7277Z" fill="#ED1846"/>
  <path d="M59.3453 26.7277C60.7167 27.544 62.381 27.1066 63.2975 25.877L65.7302 27.9126C63.9694 30.0687 60.8648 30.451 58.2978 29.7002C56.9471 29.2455 55.7997 28.4327 55.0864 27.1858C54.1285 25.5119 54.1423 23.4315 55.1174 21.7679C55.81 20.5865 56.9023 19.8115 58.1772 19.35C59.7553 18.8403 61.4024 18.8299 62.9977 19.2846C64.0693 19.6187 64.9962 20.1973 65.7233 21.0825L63.2906 23.1284C62.2914 21.7679 60.4686 21.4648 59.1282 22.4189C57.8361 23.5004 57.9498 25.8977 59.3487 26.7312L59.3453 26.7277Z" fill="#ED1846"/>
  <path d="M133.993 29.7174L130.196 29.7242L130.172 21.9091H126.877V19.1123H137.28L137.283 21.9091H133.993V29.7174Z" fill="#ED1846"/>
  <path d="M117.264 12.3678L117.278 14.3001L116.037 14.2967L107.137 3.11296L107.123 14.2967L105.628 14.3001V0.412622L106.848 0.40918L115.789 11.6273L115.782 0.416065L117.257 0.419512L117.264 12.3678Z" fill="#00A3BA"/>
  <path d="M81.1184 5.27599C81.9799 8.38277 80.922 11.6996 78.0414 13.3185C76.8975 13.9075 75.6846 14.2829 74.3649 14.2863L68.2764 14.3001V0.40918L74.3615 0.419512C75.6467 0.419512 76.8286 0.774278 77.945 1.3357C79.5093 2.19334 80.6395 3.55384 81.115 5.27599H81.1184ZM79.6919 5.63765C79.2612 4.08771 78.1724 2.90287 76.7114 2.245C75.881 1.92468 75.0334 1.7008 74.1203 1.7008L69.7683 1.69391V13.0154L74.1203 13.0085C75.0058 13.0085 75.8293 12.7949 76.6322 12.4918C79.3715 11.3414 80.4638 8.42755 79.6919 5.6411V5.63765Z" fill="#00A3BA"/>
  <path d="M140.77 7.79345H133.61L133.6 12.9324H141.956V14.2171H132.108V0.326172H141.642L141.649 1.61435H133.596L133.603 6.52594L140.77 6.52938V7.79345Z" fill="#00A3BA"/>
  <path d="M64.7379 10.5905L57.0127 10.6111L55.3622 14.2966H53.7979L60.1345 0.422852H61.6196L67.9803 14.2862L66.4091 14.3138L64.7379 10.5939V10.5905ZM64.1832 9.37463L60.865 1.99002L57.564 9.37807L64.1832 9.37118V9.37463Z" fill="#00A3BA"/>
  <path d="M102.089 10.5905L94.3642 10.6111L92.7138 14.2966H91.1494L97.486 0.422852H98.9711L105.332 14.2862L103.761 14.3138L102.089 10.5939V10.5905ZM101.535 9.37463L98.2165 1.99002L94.9156 9.37807L101.535 9.37118V9.37463Z" fill="#00A3BA"/>
  <path d="M120.01 7.28408C119.983 10.8627 122.85 13.3392 126.43 13.0705C127.794 12.9672 129 12.4264 129.979 11.4207L130.933 12.3713C129.052 14.4242 125.875 14.865 123.28 14.0246C120.317 13.0671 118.498 10.3633 118.525 7.28408C118.553 4.12909 120.52 1.44596 123.587 0.598661C126.109 -0.100535 129.103 0.336893 130.926 2.32082L129.975 3.2749C128.311 1.52174 125.537 1.17387 123.322 2.15205C121.271 3.05791 120.021 5.04183 120.003 7.28753L120.01 7.28408Z" fill="#00A3BA"/>
  <path d="M92.2964 0.426807L93.8194 0.423364L87.6861 14.2936H86.2078L80.0366 0.426807L81.6526 0.419922L86.9728 12.4199L92.2964 0.426807Z" fill="#00A3BA"/>
  <path d="M198.352 43.012L196.153 43.0223L193.2 39.5195L193.18 43.0223L190.588 43.0189V35.1865H192.787L195.74 38.6894L195.764 35.1865H198.352V43.012Z" fill="#00A3BA"/>
  <path d="M208.01 39.0648C208.03 41.6136 206.087 43.0223 203.665 43.0223H199.661V35.1865H203.83C204.619 35.1934 205.367 35.407 206.056 35.7342C207.31 36.3886 207.999 37.6079 208.01 39.0648ZM205.315 39.0545C205.294 38.1073 204.698 37.3013 203.74 37.291L202.321 37.2738V40.9316L203.496 40.942C204.585 40.9523 205.343 40.1877 205.318 39.0545H205.315Z" fill="#00A3BA"/>
  <path d="M180.21 43.0154L177.55 43.0223V40.1463H175.103V43.0223L172.443 43.0189V35.1865H175.103V37.9626H177.55V35.1865H180.21V43.0154Z" fill="#00A3BA"/>
  <path d="M186.898 41.6854L183.924 41.6682L183.376 43.0184H180.647L184.093 35.1895H186.746L190.199 43.0184H187.415L186.901 41.682L186.898 41.6854ZM186.147 39.7463L185.399 37.845L184.644 39.7566L186.15 39.7463H186.147Z" fill="#00ACC4"/>
  <path d="M118.508 40.6905C118.625 42.4471 116.95 43.0292 115.314 43.0361L110.738 43.0465V35.1865L115.396 35.1934C115.996 35.1934 116.585 35.3725 117.102 35.5895C117.774 35.958 118.156 36.5436 118.146 37.2634C118.136 37.9626 117.739 38.5482 117.081 38.9029C117.908 39.1992 118.449 39.8191 118.508 40.6905ZM114.938 38.1314C115.3 38.1211 115.476 37.7835 115.438 37.508C115.414 37.322 115.162 37.0671 114.907 37.0637L113.35 37.0361V38.1762L114.935 38.1314H114.938ZM115.259 41.1349C115.662 41.128 115.855 40.7388 115.813 40.4529C115.779 40.2118 115.517 39.9431 115.207 39.9397L113.353 39.9087V41.1693L115.259 41.1349Z" fill="#00A3BA"/>
  <path d="M126.929 35.1974L123.949 40.1813L123.938 43.0194L121.282 43.0229V40.171L118.291 35.1939L121.123 35.1836L122.722 37.8564L124.331 35.187L126.929 35.1974Z" fill="#00A3BA"/>
  <path d="M183.063 29.3525C181.437 29.9828 179.703 29.9656 178.118 29.3731C176.103 28.6188 174.779 26.8175 174.659 24.7647C174.531 22.6085 175.634 20.6556 177.608 19.6912C179.321 18.8542 181.316 18.806 183.087 19.4914C185.175 20.3008 186.471 22.2124 186.488 24.3754C186.502 26.5729 185.21 28.5224 183.066 29.3525H183.063ZM182.184 28.55C184.066 27.9679 185.254 26.3249 185.268 24.4581C185.282 22.5913 184.138 20.9552 182.326 20.3387C181.099 19.9219 179.783 19.9495 178.577 20.4248C176.871 21.0965 175.827 22.6808 175.841 24.4581C175.855 26.2078 176.892 27.7578 178.573 28.4191C179.724 28.8703 180.951 28.9323 182.181 28.5534L182.184 28.55Z" fill="#00A3BA"/>
  <path d="M174.594 29.6967L173.274 29.7174L170.717 26.3385L166.803 26.3764V29.7208L165.597 29.7174V19.1123L170.152 19.1226C171.076 19.1226 171.965 19.3672 172.744 19.7736C173.822 20.3867 174.37 21.4097 174.418 22.6186C174.487 24.2684 173.502 25.6531 171.851 26.0698L174.59 29.6932L174.594 29.6967ZM173.205 22.6634C173.178 21.699 172.726 20.955 171.917 20.5245C171.396 20.3075 170.807 20.1215 170.221 20.118L166.807 20.1077V25.3982L170.08 25.3878C171.768 25.381 173.257 24.5095 173.209 22.6634H173.205Z" fill="#00A3BA"/>
  <path d="M207.438 22.6227C207.462 25.0509 205.457 26.2806 203.176 26.2875L199.823 26.2978V29.6388L198.617 29.6353V19.0303L203.172 19.0406C204.099 19.0406 204.981 19.2817 205.767 19.695C206.859 20.3219 207.428 21.3793 207.438 22.6261V22.6227ZM206.225 22.5814C206.194 21.6204 205.75 20.873 204.933 20.4459C204.413 20.2289 203.824 20.0429 203.238 20.0395L199.823 20.0291V25.2989L203.159 25.2886C203.679 25.2886 204.23 25.1474 204.699 24.9717C205.705 24.5894 206.26 23.6904 206.225 22.5814Z" fill="#00A3BA"/>
  <path d="M162.72 28.0122V24.4026H163.881V28.4841C162.082 29.8997 159.488 30.1511 157.396 29.4175C155.305 28.6839 153.82 26.6999 153.806 24.4542C153.792 22.2085 155.191 20.1936 157.407 19.4186C159.536 18.6747 162.327 18.9192 163.96 20.5449L163.195 21.282C161.686 19.8251 159.095 19.6907 157.3 20.6345C155.825 21.4095 154.964 22.8905 155.008 24.53C155.053 26.1695 155.959 27.5713 157.469 28.274C159.129 29.0455 161.069 28.9766 162.72 28.0053V28.0122Z" fill="#00A3BA"/>
  <path d="M195.471 19.0371H196.66V25.3953C196.66 27.2656 195.698 28.9395 193.869 29.4803C192.708 29.8213 191.491 29.8282 190.323 29.5113C188.394 28.9877 187.412 27.2828 187.412 25.3161V19.0371H188.614V25.2334C188.621 26.7972 189.314 28.2024 190.857 28.5744C192.718 29.0222 194.751 28.5262 195.299 26.5733C195.481 25.9189 195.488 25.2679 195.488 24.579L195.478 19.0371H195.471Z" fill="#00A3BA"/>
  <path d="M80.6532 35.1905L83.203 35.187L80.6808 43.0194H77.8037L76.5356 38.9035L75.2091 43.016L72.325 43.0194L69.7993 35.1905L72.5628 35.187L73.9273 39.5613L75.3744 35.1905L77.8416 35.1836L79.2129 39.6302L80.6532 35.1905Z" fill="#00A3BA"/>
  <path d="M60.1348 41.6864L57.1611 41.6692L56.6133 43.0194H53.8843L57.33 35.1904H59.9832L63.4357 43.0194H60.6516L60.1382 41.683L60.1348 41.6864ZM59.3836 39.7473L58.6359 37.846L57.8813 39.7576L59.387 39.7473H59.3836Z" fill="#00A3BA"/>
  <path d="M88.9028 41.6864L85.9292 41.6692L85.3813 43.0194H82.6523L86.098 35.1904H88.7512L92.2038 43.0194H89.4197L88.9063 41.683L88.9028 41.6864ZM88.1517 39.7473L87.4039 37.846L86.6493 39.7576L88.1551 39.7473H88.1517Z" fill="#00A3BA"/>
  <path d="M105.349 42.62C103.771 43.5224 101.163 43.3123 99.4087 42.3995L100.26 40.4363C101.328 41.0838 103.595 41.4799 103.923 40.822C103.974 40.7153 103.823 40.4501 103.702 40.4191L102.61 40.1194C101.952 39.9368 101.273 39.8301 100.67 39.5339C99.8876 39.1515 99.4948 38.4076 99.5327 37.543C99.6568 34.76 103.902 34.4776 106.248 35.6866L105.428 37.6257C104.315 36.9713 102.162 36.8025 102.179 37.5086C102.179 37.6395 102.417 37.8461 102.562 37.8806L104.622 38.3559C105.194 38.4868 105.807 38.7796 106.162 39.2583C106.993 40.3881 106.538 41.9346 105.346 42.6165L105.349 42.62Z" fill="#00A3BA"/>
  <path d="M99.7946 35.1974L96.8141 40.1813L96.8037 43.0194L94.1471 43.0229V40.171L91.1562 35.1939L93.9886 35.1836L95.5874 37.8564L97.1965 35.187L99.7946 35.1974Z" fill="#00A3BA"/>
  <path d="M70.1306 40.9636L70.1375 43.0405L63.9077 43.044V35.1875H66.5678L66.5643 40.9567L70.1306 40.9636Z" fill="#00A3BA"/>
  <path d="M157.255 39.0658C157.275 41.6146 155.332 43.0233 152.91 43.0233H148.906V35.1875H153.075C153.864 35.1944 154.612 35.4079 155.301 35.7351C156.555 36.3896 157.244 37.6088 157.255 39.0658ZM154.56 39.0555C154.539 38.1083 153.943 37.3023 152.985 37.292L151.566 37.2748V40.9326L152.741 40.943C153.83 40.9533 154.588 40.1886 154.564 39.0555H154.56Z" fill="#00A3BA"/>
  <path d="M145.681 42.7032C144.299 43.3645 142.704 43.3541 141.346 42.7445C139.988 42.1348 139.099 40.8467 139.017 39.3553C138.92 37.6917 139.775 36.2003 141.294 35.4908C142.645 34.857 144.24 34.8501 145.601 35.4666C146.962 36.0832 147.848 37.361 147.931 38.8558C148.02 40.4953 147.21 41.9729 145.684 42.7066L145.681 42.7032ZM145.243 39.0625C145.226 37.9362 144.437 37.144 143.41 37.175C142.383 37.206 141.697 38.0568 141.694 39.1038C141.69 40.1509 142.421 41.0361 143.468 41.0361C144.513 41.0361 145.26 40.1922 145.243 39.0625Z" fill="#00A3BA"/>
  <path d="M135.888 40.8776L135.895 38.8834L138.204 38.8765V42.2175C136.746 43.0992 134.978 43.4436 133.331 42.9993C131.602 42.5309 130.444 41.1084 130.347 39.3587C130.251 37.609 131.219 36.0039 132.908 35.3598C134.727 34.6675 137.197 34.9844 138.445 36.5481L136.725 38.0395C135.96 37.1164 134.668 36.8891 133.721 37.5676C133.2 37.9396 133.035 38.5699 133.042 39.1899C133.052 40.1543 133.707 40.9327 134.682 41.0223C135.068 41.0567 135.419 40.9879 135.888 40.8811V40.8776Z" fill="#00A3BA"/>
  <path d="M166.972 42.62C165.393 43.5224 162.785 43.3123 161.031 42.3995L161.882 40.4363C162.951 41.0838 165.218 41.4799 165.545 40.822C165.597 40.7153 165.445 40.4501 165.325 40.4191L164.232 40.1194C163.574 39.9368 162.895 39.8301 162.292 39.5339C161.51 39.1515 161.117 38.4076 161.155 37.543C161.279 34.76 165.524 34.4776 167.871 35.6866L167.051 37.6257C165.938 36.9713 163.784 36.8025 163.802 37.5086C163.802 37.6395 164.039 37.8461 164.184 37.8806L166.245 38.3559C166.817 38.4868 167.43 38.7796 167.785 39.2583C168.615 40.3881 168.16 41.9346 166.968 42.6165L166.972 42.62Z" fill="#00A3BA"/>
  <path d="M159.384 39.1172L157.768 39.1241L158.33 37.2331C157.861 36.9748 157.638 36.5615 157.607 36.069C157.548 35.1597 158.22 34.4984 159.129 34.519C159.873 34.5397 160.517 34.9737 160.593 35.7624C160.627 36.1378 160.558 36.5925 160.4 36.9369L159.387 39.1137L159.384 39.1172Z" fill="#00A3BA"/>
  <path d="M43.7982 42.8163H32.8409L7.53917 12.9403V42.8163H0L0.0034438 0H7.53917L43.7982 42.8163Z" fill="#ED1846"/>
  <path d="M40.983 15.7582C40.3593 19.5435 38.354 22.7674 35.1253 24.8788L32.6755 26.6113L27.5758 20.5906L29.9671 18.8822L31.1938 18.0073C32.0173 17.4184 32.6824 16.6296 33.0786 15.6997C33.4749 14.7662 33.6161 13.7157 33.4232 12.6101C33.0097 10.2301 31.1697 8.22893 28.5958 7.90517L16.8218 7.89484L10.1372 0.00390625H27.917C29.0782 0.00390625 30.2359 0.138238 31.3592 0.437893C33.4817 1.00621 35.3769 2.08083 36.9791 3.63422C40.287 6.84088 41.7307 11.2152 40.9796 15.7582H40.983Z" fill="#00A3BA"/>
  <path d="M22.5696 33.7681L9.80681 42.8164H7.53955V34.8772L17.4769 27.7578L22.5696 33.7681Z" fill="#00A3BA"/>
  <path d="M216 2.08381C216 3.26521 215.073 4.19517 213.863 4.19517C212.654 4.19517 211.713 3.26866 211.713 2.08381C211.713 0.898968 212.668 0 213.863 0C215.059 0 216 0.926522 216 2.08381ZM212.251 2.08381C212.251 3.01033 212.937 3.74742 213.877 3.74742C214.818 3.74742 215.466 3.01033 215.466 2.09415C215.466 1.17796 214.79 0.416759 213.863 0.416759C212.937 0.416759 212.247 1.16762 212.247 2.08036L212.251 2.08381ZM213.533 3.1791H213.05V1.09529C213.24 1.0574 213.509 1.03329 213.853 1.03329C214.246 1.03329 214.425 1.09529 214.577 1.18485C214.69 1.2744 214.78 1.43973 214.78 1.64294C214.78 1.87027 214.601 2.04937 214.349 2.12514V2.14925C214.553 2.22502 214.666 2.37658 214.732 2.65901C214.794 2.97589 214.835 3.10333 214.883 3.1791H214.363C214.301 3.10333 214.26 2.91045 214.198 2.66935C214.16 2.44202 214.032 2.33869 213.767 2.33869H213.54V3.1791H213.533ZM213.546 1.99426H213.774C214.039 1.99426 214.256 1.9047 214.256 1.68771C214.256 1.49828 214.115 1.37084 213.812 1.37084C213.684 1.37084 213.595 1.38462 213.546 1.39495V1.99081V1.99426Z" fill="#00A3BA"/>
</svg>