<svg xmlns="http://www.w3.org/2000/svg" width="250" height="244" viewBox="0 0 250 244" fill="none">
  <path d="M250 243.59H187.456L43.0336 73.6197L40.4762 243.59H0L0.0196572 0H43.0336L250 243.59Z" fill="black" fill-opacity="0.1"/>
  <path d="M233.931 89.6491C230.371 111.184 218.925 129.526 200.496 141.538L186.512 151.394L157.403 117.141L178.055 102.445C182.755 99.094 186.551 94.6067 188.813 89.3159C191.075 84.0056 191.881 78.0291 190.78 71.739C188.42 58.1986 177.917 46.8137 163.225 44.9717L96.0193 44.9129L57.8633 0.020001H159.35C165.978 0.020001 172.587 0.784238 178.999 2.48903C191.114 5.72226 201.931 11.836 211.077 20.6735C229.958 38.9168 238.199 63.8028 233.912 89.6491H233.931Z" fill="black" fill-opacity="0.1"/>
  <path d="M128.826 192.113L55.976 243.59L40.4762 243.59V201.021L99.757 157.919L128.826 192.113Z" fill="black" fill-opacity="0.1"/>
</svg>