<svg xmlns="http://www.w3.org/2000/svg" width="40" height="40" viewBox="0 0 40 40" fill="none">
  <path d="M40 39.1189H29.9929L6.88538 11.8228V39.1189H0L0.00314515 0H6.88538L40 39.1189Z" fill="white"/>
  <path d="M37.4291 14.397C36.8595 17.8554 35.028 20.8009 32.0794 22.7299L29.842 24.3128L25.1846 18.8121L28.4888 16.4519C29.2409 15.9138 29.8483 15.1932 30.2102 14.3435C30.572 13.4907 30.7011 12.5309 30.5248 11.5208C30.1472 9.34626 28.4668 7.51792 26.1161 7.22211L15.3632 7.21267L9.25822 0.0031662H25.4961C26.5566 0.0031662 27.614 0.125898 28.6399 0.399676C30.5783 0.918912 32.3091 1.90074 33.7724 3.31998C36.7934 6.24973 38.112 10.2463 37.4259 14.397H37.4291Z" fill="white"/>
  <path d="M20.6121 30.852L8.95602 39.1189L6.88538 39.1189L6.88538 31.8653L15.961 25.3607L20.6121 30.852Z" fill="white"/>
</svg>