<svg xmlns="http://www.w3.org/2000/svg" width="184" height="184" viewBox="0 0 184 184" fill="none">
  <rect width="184" height="184" rx="4" fill="#003B46"/>
  <path d="M151.95 150.829H121.8L52.1783 68.5881V150.829H31.4331L31.4426 32.9668H52.1783L151.95 150.829Z" fill="white"/>
  <path d="M144.204 76.3432C142.488 86.7632 136.97 95.6377 128.086 101.45L121.345 106.219L107.312 89.6455L113.892 84.9428L117.268 82.5345C119.534 80.9132 121.363 78.7419 122.454 76.182C123.544 73.6125 123.933 70.7208 123.402 67.6772C122.264 61.1257 117.201 55.617 110.119 54.7258L77.7209 54.6973L59.3271 32.9756H108.251C111.446 32.9756 114.632 33.3454 117.723 34.1702C123.563 35.7347 128.778 38.6928 133.187 42.9689C142.289 51.796 146.261 63.8373 144.195 76.3432H144.204Z" fill="#00ACC4"/>
  <path d="M93.5358 125.922L58.4169 150.829H52.1782V128.975L79.5224 109.377L93.5358 125.922Z" fill="#00ACC4"/>
</svg>