<svg xmlns="http://www.w3.org/2000/svg" width="140" height="137" viewBox="0 0 140 137" fill="none">
  <path d="M140 137H104.975L24.0988 41.4053V137H0L0.011008 0H24.0988L140 137Z" fill="white"/>
  <path d="M131.002 50.4205C129.008 62.5324 122.598 72.8479 112.278 79.6036L104.447 85.1471L88.1458 65.8827L99.7106 57.6171C102.343 55.7325 104.469 53.2087 105.735 50.2331C107.002 47.2464 107.453 43.8851 106.837 40.3474C105.515 32.732 99.6335 26.3289 91.406 25.2929L53.7708 25.2599L32.4035 0.0111491H89.2362C92.9479 0.0111491 96.6487 0.440972 100.239 1.39979C107.024 3.21822 113.082 6.65672 118.203 11.6271C128.777 21.8875 133.392 35.884 130.991 50.4205H131.002Z" fill="#00ACC4"/>
  <path d="M72.1422 108.048L31.346 137L24.0988 137L24.0988 111.597L55.8634 88.8168L72.1422 108.048Z" fill="#00ACC4"/>
</svg>