<svg xmlns="http://www.w3.org/2000/svg" width="180" height="36" viewBox="0 0 180 36" fill="none">
  <path d="M129.842 11.8501L127.875 8.94829L126.83 8.94256V11.8501H122.917L122.905 5.96035L122.894 0.271484L128.852 0.280095C129.782 0.280095 130.646 0.509717 131.459 0.87711C132.975 1.59181 133.805 3.04416 133.779 4.70892C133.756 6.22154 133.027 7.57057 131.6 8.26804L134.04 11.8444H129.842V11.8501ZM129.808 4.60559C129.839 3.87367 129.291 3.33119 128.596 3.3197L126.83 3.29387V5.98618L128.593 5.96035C129.323 5.94887 129.871 5.36621 129.808 4.60559Z" fill="white"/>
  <path d="M144.328 11.4945C142.407 12.3326 140.219 12.3211 138.333 11.5117C136.108 10.5559 134.764 8.46638 134.764 6.06684C134.764 3.72757 136.033 1.66385 138.181 0.676481C140.041 -0.178858 142.218 -0.219042 144.122 0.532968C146.462 1.46006 147.895 3.63859 147.86 6.13572C147.826 8.47786 146.528 10.5358 144.331 11.4945H144.328ZM143.697 7.25799C143.978 6.45145 143.967 5.62482 143.694 4.85559C143.312 3.78498 142.324 3.14204 141.224 3.17935C140.159 3.21379 139.237 3.88256 138.899 4.94743C138.677 5.64204 138.669 6.3797 138.87 7.08004C139.189 8.18509 140.119 8.91127 141.221 8.94284C142.31 8.97442 143.315 8.35157 143.697 7.25799Z" fill="white"/>
  <path d="M173.677 11.7703L169.146 11.7846L166.243 7.96432L165.376 8.93734L165.379 11.7789L161.534 11.7818L161.523 5.89199L161.508 0.205998L165.376 0.203125L165.382 4.37649L169.149 0.208867H173.428L168.81 5.29498L173.677 11.7703Z" fill="white"/>
  <path d="M155.053 8.91617C156.262 9.07404 157.276 8.51434 157.988 7.57289L160.471 9.77725C158.714 12.1481 155.191 12.6389 152.532 11.6114C150.215 10.7158 148.825 8.5861 148.793 6.13489C148.762 3.68369 150.232 1.33581 152.67 0.451769C154.255 -0.122284 155.978 -0.136638 157.606 0.336956C158.757 0.70722 159.728 1.36164 160.469 2.31744L157.988 4.53902C157.304 3.63776 156.348 3.09241 155.22 3.18139C154.091 3.27037 153.253 3.90757 152.931 4.94373C152.693 5.71009 152.696 6.53386 152.971 7.28587C153.304 8.19287 154.071 8.78701 155.056 8.91617H155.053Z" fill="white"/>
  <path d="M76.0756 24.8125L73.4626 24.8412L69.9308 20.8917L69.9078 24.8355H66.8096V15.9979L69.4082 15.9922L72.9601 19.9704L72.9544 15.9951H76.0555L76.0756 24.8125Z" fill="white"/>
  <path d="M96.5223 24.8288L93.1254 24.8374L91.5433 22.6302H90.702V24.8346H87.5176V15.9941L92.3502 16.0056C93.1857 16.0056 93.9725 16.2238 94.6846 16.5825C95.7327 17.1451 96.3184 18.1497 96.3184 19.3294C96.3184 20.5435 95.6925 21.594 94.5554 22.1021L96.5223 24.8317V24.8288ZM92.1635 20.3311C92.7895 20.3168 93.1254 19.8202 93.1111 19.2921C93.0967 18.7697 92.7148 18.3391 92.1233 18.3277L90.679 18.3018L90.6934 20.3655L92.1635 20.3311Z" fill="white"/>
  <path d="M63.2689 24.3388C61.5432 25.2544 59.4586 25.2659 57.7156 24.4795C56.0646 23.7361 55.0653 22.189 55.0567 20.4467C55.0481 18.6959 56.0272 17.1402 57.6725 16.3767C59.4241 15.5644 61.5317 15.5845 63.2431 16.48C64.7592 17.2722 65.6436 18.7447 65.6522 20.3836C65.6608 22.0225 64.808 23.5208 63.2661 24.3388H63.2689ZM62.5224 20.4152C62.5224 19.2211 61.5518 18.251 60.3544 18.251C59.1571 18.251 58.1865 19.2211 58.1865 20.4152C58.1865 21.6092 59.1571 22.5793 60.3544 22.5793C61.5518 22.5793 62.5224 21.6092 62.5224 20.4152Z" fill="white"/>
  <path d="M104.543 21.3649L100.574 21.3678L100.589 22.5044L105.275 22.5073V24.7662H97.459V15.9258H105.085L105.088 18.1876H100.58L100.577 19.2065H104.543V21.3649Z" fill="white"/>
  <path d="M122.32 21.3649L118.351 21.3678L118.363 22.5044L123.052 22.5073V24.7662H115.233V15.9258H122.862V18.1876H118.357L118.354 19.2065H122.317L122.32 21.3649Z" fill="white"/>
  <path d="M81.3298 22.2721C82.4726 22.9524 83.8595 22.5879 84.6233 21.5632L86.6505 23.2595C85.1832 25.0563 82.596 25.3749 80.4568 24.7492C79.3312 24.3703 78.3751 23.6929 77.7807 22.6539C76.9824 21.2589 76.9939 19.5253 77.8065 18.139C78.3837 17.1545 79.2939 16.5086 80.3563 16.124C81.6714 15.6992 83.044 15.6906 84.3734 16.0695C85.2665 16.3479 86.0389 16.8301 86.6447 17.5678L84.6146 19.2727C83.7819 18.139 82.263 17.8864 81.146 18.6814C80.0692 19.5827 80.164 21.5804 81.3298 22.275V22.2721Z" fill="white"/>
  <path d="M49.4543 22.2721C50.5971 22.9524 51.984 22.5879 52.7478 21.5632L54.775 23.2595C53.3077 25.0563 50.7205 25.3749 48.5813 24.7492C47.4558 24.3703 46.4996 23.6929 45.9052 22.6539C45.1069 21.2589 45.1184 19.5253 45.931 18.139C46.5082 17.1545 47.4184 16.5086 48.4809 16.124C49.796 15.6992 51.1685 15.6906 52.4979 16.0695C53.391 16.3479 54.1634 16.8301 54.7692 17.5678L52.742 19.2727C51.9093 18.139 50.3903 17.8864 49.2734 18.6814C48.1966 19.5827 48.2913 21.5804 49.4571 22.275L49.4543 22.2721Z" fill="white"/>
  <path d="M111.66 24.7633L108.496 24.7691L108.476 18.2564H105.731V15.9258H114.4L114.403 18.2564H111.66V24.7633Z" fill="white"/>
  <path d="M97.7197 10.3054L97.7312 11.9156L96.6975 11.9128L89.2806 2.593L89.2691 11.9128L88.0229 11.9156V0.342712L89.0394 0.339844L96.4907 9.68829L96.485 0.345581L97.714 0.348454L97.7197 10.3054Z" fill="white"/>
  <path d="M67.5987 4.39552C68.3166 6.9845 67.435 9.74857 65.0345 11.0976C64.0812 11.5884 63.0705 11.9013 61.9707 11.9041L56.897 11.9156V0.339844L61.9679 0.348454C63.0389 0.348454 64.0238 0.644092 64.9541 1.11195C66.2578 1.82664 67.1996 2.96039 67.5958 4.39552H67.5987ZM66.4099 4.6969C66.051 3.40528 65.1437 2.41792 63.9262 1.8697C63.2342 1.60276 62.5278 1.41619 61.7669 1.41619L58.1403 1.41045V10.845L61.7669 10.8393C62.5048 10.8393 63.1911 10.6613 63.8601 10.4087C66.1429 9.45006 67.0531 7.02182 66.4099 4.69978V4.6969Z" fill="white"/>
  <path d="M117.309 6.49422H111.342L111.333 10.7767H118.296V11.8473H110.09V0.271484H118.035L118.041 1.34496H111.33L111.336 5.43796L117.309 5.44083V6.49422Z" fill="white"/>
  <path d="M53.9483 8.82458L47.5106 8.8418L46.1352 11.913H44.8315L50.1121 0.351562H51.3496L56.6503 11.9044L55.3409 11.9273L53.9483 8.82745V8.82458ZM53.486 7.81138L50.7208 1.65753L47.97 7.81425L53.486 7.80851V7.81138Z" fill="white"/>
  <path d="M85.0742 8.82458L78.6365 8.8418L77.2611 11.913H75.9575L81.238 0.351562H82.4756L87.7762 11.9044L86.4669 11.9273L85.0742 8.82745V8.82458ZM84.6119 7.81138L81.8468 1.65753L79.096 7.81425L84.6119 7.80851V7.81138Z" fill="white"/>
  <path d="M100.009 6.06909C99.9859 9.0513 102.375 11.115 105.358 10.8911C106.495 10.805 107.5 10.3544 108.316 9.51628L109.111 10.3085C107.543 12.0192 104.896 12.3865 102.734 11.6862C100.264 10.8883 98.7483 8.63511 98.7713 6.06909C98.7942 3.43993 100.434 1.20399 102.989 0.497908C105.091 -0.0847557 107.586 0.279768 109.105 1.93304L108.313 2.7281C106.926 1.26714 104.615 0.977245 102.768 1.7924C101.06 2.54728 100.017 4.20055 100.003 6.07197L100.009 6.06909Z" fill="white"/>
  <path d="M76.9137 0.353394L78.1829 0.350525L73.0718 11.9091H71.84L66.6973 0.353394L68.044 0.347656L72.4774 10.3477L76.9137 0.353394Z" fill="white"/>
  <path d="M165.293 35.8435L163.461 35.8521L161 32.9331L160.983 35.8521L158.824 35.8492V29.3223H160.656L163.116 32.2413L163.137 29.3223H165.293V35.8435Z" fill="white"/>
  <path d="M173.341 32.5542C173.358 34.6782 171.739 35.8521 169.72 35.8521H166.384V29.3223H169.858C170.516 29.328 171.139 29.506 171.713 29.7786C172.758 30.324 173.333 31.3401 173.341 32.5542ZM171.096 32.5456C171.079 31.7562 170.582 31.0846 169.784 31.076L168.601 31.0616V34.1099L169.58 34.1185C170.487 34.1271 171.119 33.4899 171.099 32.5456H171.096Z" fill="white"/>
  <path d="M150.175 35.8464L147.958 35.8521V33.4554H145.919V35.8521L143.703 35.8492V29.3223H145.919V31.6357H147.958V29.3223H150.175V35.8464Z" fill="white"/>
  <path d="M155.748 34.7375L153.27 34.7232L152.814 35.8483H150.54L153.411 29.3242H155.622L158.499 35.8483H156.179L155.751 34.7347L155.748 34.7375ZM155.122 33.1216L154.499 31.5372L153.87 33.1302L155.125 33.1216H155.122Z" fill="white"/>
  <path d="M98.7563 33.907C98.8539 35.3708 97.4584 35.8559 96.0945 35.8616L92.2812 35.8703V29.3203L96.1634 29.326C96.663 29.326 97.154 29.4753 97.5847 29.6561C98.1447 29.9632 98.4634 30.4512 98.4548 31.0511C98.4462 31.6337 98.116 32.1217 97.5675 32.4173C98.2567 32.6642 98.7075 33.1808 98.7563 33.907ZM95.7815 31.7744C96.083 31.7658 96.2294 31.4845 96.1979 31.2549C96.1778 31.0999 95.9681 30.8875 95.7557 30.8846L94.4578 30.8616V31.8117L95.7786 31.7744H95.7815ZM96.0485 34.2773C96.3845 34.2715 96.5453 33.9472 96.5108 33.7089C96.4821 33.508 96.2639 33.2841 96.0055 33.2813L94.4606 33.2554V34.306L96.0485 34.2773Z" fill="white"/>
  <path d="M105.774 29.3298L103.29 33.4831L103.281 35.8482L101.068 35.8511V33.4745L98.5752 29.327L100.935 29.3184L102.268 31.5457L103.609 29.3212L105.774 29.3298Z" fill="white"/>
  <path d="M152.553 24.4589C151.197 24.9842 149.753 24.9698 148.432 24.4762C146.752 23.8476 145.65 22.3464 145.549 20.6357C145.443 18.839 146.362 17.2115 148.007 16.4078C149.434 15.7104 151.097 15.6702 152.573 16.2414C154.313 16.9159 155.393 18.5089 155.407 20.3114C155.418 22.1426 154.342 23.7672 152.556 24.4589H152.553ZM151.82 23.7902C153.388 23.3051 154.379 21.936 154.39 20.3803C154.402 18.8246 153.449 17.4612 151.938 16.9475C150.916 16.6002 149.819 16.6231 148.814 17.0192C147.393 17.5789 146.523 18.8992 146.534 20.3803C146.546 21.8384 147.41 23.13 148.811 23.6811C149.77 24.0571 150.793 24.1088 151.818 23.793L151.82 23.7902Z" fill="white"/>
  <path d="M145.495 24.7461L144.395 24.7633L142.264 21.9476L139.003 21.9792V24.7662L137.998 24.7633V15.9258L141.794 15.9344C142.563 15.9344 143.304 16.1382 143.953 16.4769C144.852 16.9878 145.308 17.8402 145.348 18.8477C145.406 20.2226 144.585 21.3764 143.209 21.7237L145.492 24.7432L145.495 24.7461ZM144.338 18.885C144.315 18.0813 143.939 17.4614 143.264 17.1026C142.83 16.9218 142.339 16.7668 141.851 16.7639L139.005 16.7553V21.164L141.733 21.1554C143.14 21.1497 144.381 20.4235 144.341 18.885H144.338Z" fill="white"/>
  <path d="M172.865 18.8511C172.885 20.8746 171.214 21.8993 169.313 21.9051L166.519 21.9137V24.6978L165.514 24.695V15.8574L169.31 15.866C170.083 15.866 170.818 16.0669 171.472 16.4114C172.383 16.9338 172.856 17.8149 172.865 18.854V18.8511ZM171.854 18.8167C171.828 18.0159 171.458 17.393 170.777 17.0371C170.344 16.8563 169.853 16.7013 169.365 16.6984L166.519 16.6898V21.0813L169.299 21.0727C169.732 21.0727 170.192 20.955 170.582 20.8086C171.421 20.49 171.883 19.7409 171.854 18.8167Z" fill="white"/>
  <path d="M135.6 23.3432V20.3352H136.567V23.7364C135.069 24.9161 132.906 25.1256 131.163 24.5143C129.421 23.9029 128.183 22.2496 128.171 20.3782C128.16 18.5068 129.326 16.8277 131.172 16.1819C132.947 15.5619 135.272 15.7657 136.634 17.1205L135.996 17.7347C134.738 16.5206 132.579 16.4086 131.083 17.1951C129.854 17.8409 129.136 19.0751 129.174 20.4413C129.211 21.8076 129.966 22.9758 131.224 23.5613C132.608 24.2043 134.224 24.1469 135.6 23.3374V23.3432Z" fill="white"/>
  <path d="M162.892 15.8633H163.883V21.1618C163.883 22.7203 163.082 24.1153 161.557 24.5659C160.59 24.8501 159.576 24.8558 158.603 24.5918C156.995 24.1555 156.176 22.7347 156.176 21.0958V15.8633H157.178V21.0269C157.184 22.33 157.761 23.5011 159.048 23.811C160.598 24.1842 162.292 23.7709 162.749 22.1434C162.901 21.5981 162.907 21.0556 162.907 20.4815L162.898 15.8633H162.892Z" fill="white"/>
  <path d="M67.2109 29.3241L69.3358 29.3212L67.2339 35.8482H64.8363L63.7796 32.4183L62.6741 35.8453L60.2708 35.8482L58.166 29.3241L60.4689 29.3212L61.606 32.9665L62.812 29.3241L64.8679 29.3184L66.0107 33.0239L67.2109 29.3241Z" fill="white"/>
  <path d="M50.1121 34.7375L47.634 34.7232L47.1775 35.8483H44.9033L47.7747 29.3242H49.9857L52.8629 35.8483H50.5428L50.1149 34.7347L50.1121 34.7375ZM49.4861 33.1216L48.863 31.5372L48.2342 33.1302L49.489 33.1216H49.4861Z" fill="white"/>
  <path d="M74.0852 34.7375L71.6072 34.7232L71.1506 35.8483H68.8765L71.7479 29.3242H73.9589L76.836 35.8483H74.5159L74.0881 34.7347L74.0852 34.7375ZM73.4592 33.1216L72.8361 31.5372L72.2073 33.1302L73.4621 33.1216H73.4592Z" fill="white"/>
  <path d="M87.7906 35.5153C86.4755 36.2673 84.3019 36.0923 82.8403 35.3316L83.5496 33.6956C84.4397 34.2352 86.3291 34.5653 86.6019 34.0171C86.6449 33.9281 86.5186 33.7071 86.4181 33.6812L85.5079 33.4315C84.9594 33.2794 84.3938 33.1904 83.8913 32.9436C83.2395 32.625 82.9121 32.005 82.9437 31.2846C83.0471 28.9654 86.5847 28.73 88.5401 29.7375L87.8567 31.3535C86.9292 30.8081 85.1346 30.6675 85.1489 31.2559C85.1489 31.3649 85.3471 31.5372 85.4677 31.5659L87.1848 31.9619C87.6614 32.071 88.1725 32.315 88.4683 32.714C89.1603 33.6554 88.7813 34.9442 87.7878 35.5125L87.7906 35.5153Z" fill="white"/>
  <path d="M83.1615 29.3298L80.6777 33.4831L80.6691 35.8482L78.4553 35.8511V33.4745L75.9629 29.327L78.3232 29.3184L79.6555 31.5457L80.9965 29.3212L83.1615 29.3298Z" fill="white"/>
  <path d="M58.4416 34.1357L58.4474 35.8665L53.2559 35.8693V29.3223H55.4726L55.4697 34.13L58.4416 34.1357Z" fill="white"/>
  <path d="M131.045 32.5522C131.063 34.6762 129.443 35.8502 127.424 35.8502H124.088V29.3203H127.562C128.22 29.3261 128.843 29.504 129.417 29.7767C130.462 30.322 131.037 31.3381 131.045 32.5522ZM128.8 32.5436C128.783 31.7543 128.286 31.0827 127.488 31.074L126.305 31.0597V34.1079L127.284 34.1165C128.191 34.1251 128.823 33.4879 128.803 32.5436H128.8Z" fill="white"/>
  <path d="M121.401 35.583C120.249 36.1341 118.92 36.1255 117.789 35.6175C116.657 35.1094 115.916 34.036 115.847 32.7931C115.767 31.4068 116.479 30.164 117.745 29.5727C118.871 29.0446 120.201 29.0388 121.335 29.5526C122.469 30.0664 123.207 31.1312 123.276 32.3769C123.35 33.7432 122.676 34.9745 121.404 35.5859L121.401 35.583ZM121.036 32.5492C121.022 31.6106 120.364 30.9504 119.509 30.9763C118.653 31.0021 118.081 31.711 118.079 32.5836C118.076 33.4562 118.684 34.1938 119.557 34.1938C120.427 34.1938 121.05 33.4906 121.036 32.5492Z" fill="white"/>
  <path d="M113.24 34.0632L113.246 32.4013L115.169 32.3956V35.1798C113.955 35.9146 112.482 36.2016 111.109 35.8313C109.668 35.441 108.703 34.2555 108.623 32.7974C108.542 31.3393 109.349 30.0018 110.756 29.4651C112.272 28.8881 114.331 29.1522 115.37 30.4553L113.938 31.6981C113.3 30.9289 112.223 30.7395 111.434 31.3049C111 31.6149 110.862 32.1402 110.868 32.6568C110.877 33.4605 111.422 34.1092 112.235 34.1838C112.557 34.2125 112.849 34.1551 113.24 34.0661V34.0632Z" fill="white"/>
  <path d="M139.143 35.5153C137.828 36.2673 135.654 36.0923 134.193 35.3316L134.902 33.6956C135.792 34.2352 137.682 34.5653 137.954 34.0171C137.997 33.9281 137.871 33.7071 137.771 33.6812L136.86 33.4315C136.312 33.2794 135.746 33.1904 135.244 32.9436C134.592 32.625 134.265 32.005 134.296 31.2846C134.4 28.9654 137.937 28.73 139.893 29.7375L139.209 31.3535C138.282 30.8081 136.487 30.6675 136.501 31.2559C136.501 31.3649 136.7 31.5372 136.82 31.5659L138.537 31.9619C139.014 32.071 139.525 32.315 139.821 32.714C140.513 33.6554 140.134 34.9442 139.14 35.5125L139.143 35.5153Z" fill="white"/>
  <path d="M132.819 32.5959L131.473 32.6016L131.941 31.0258C131.551 30.8106 131.364 30.4661 131.338 30.0557C131.29 29.2979 131.849 28.7468 132.607 28.7641C133.227 28.7813 133.764 29.1429 133.827 29.8002C133.856 30.1131 133.798 30.492 133.666 30.779L132.822 32.593L132.819 32.5959Z" fill="white"/>
  <path d="M36.4985 35.6803H27.3674L6.28264 10.7836V35.6803H0L0.00286983 0H6.28264L36.4985 35.6803Z" fill="white"/>
  <path d="M34.1526 13.1305C33.6329 16.285 31.9617 18.9715 29.2712 20.731L27.2296 22.1747L22.98 17.1575L24.9727 15.7339L25.9949 15.0048C26.6812 14.514 27.2354 13.8567 27.5656 13.0817C27.8958 12.3039 28.0135 11.4285 27.8527 10.5071C27.5082 8.52377 25.9748 6.85615 23.8299 6.58634L14.0183 6.57773L8.44775 0.00195312H23.2642C24.2319 0.00195312 25.1967 0.113896 26.1328 0.363609C27.9015 0.837203 29.4808 1.73272 30.816 3.02721C33.5726 5.69943 34.7757 9.34467 34.1497 13.1305H34.1526Z" fill="white"/>
  <path d="M18.8078 28.1395L8.1721 35.6797H6.28271V29.0637L14.5639 23.1309L18.8078 28.1395Z" fill="white"/>
  <path d="M180 1.73651C180 2.72101 179.227 3.49598 178.219 3.49598C177.212 3.49598 176.428 2.72388 176.428 1.73651C176.428 0.74914 177.223 0 178.219 0C179.216 0 180 0.772102 180 1.73651ZM176.876 1.73651C176.876 2.50861 177.447 3.12285 178.231 3.12285C179.015 3.12285 179.555 2.50861 179.555 1.74512C179.555 0.981631 178.992 0.347299 178.219 0.347299C177.447 0.347299 176.873 0.973018 176.873 1.73364L176.876 1.73651ZM177.944 2.64925H177.542V0.912742C177.7 0.881169 177.924 0.861079 178.211 0.861079C178.538 0.861079 178.688 0.912745 178.814 0.987372C178.909 1.062 178.983 1.19977 178.983 1.36912C178.983 1.55855 178.834 1.70781 178.624 1.77095V1.79104C178.794 1.85419 178.889 1.98048 178.943 2.21584C178.995 2.47991 179.029 2.58611 179.069 2.64925H178.636C178.584 2.58611 178.55 2.42537 178.498 2.22445C178.466 2.03502 178.36 1.94891 178.139 1.94891H177.95V2.64925H177.944ZM177.955 1.66188H178.145C178.366 1.66188 178.547 1.58725 178.547 1.40643C178.547 1.24856 178.429 1.14236 178.176 1.14236C178.07 1.14236 177.996 1.15385 177.955 1.16246V1.65901V1.66188Z" fill="white"/>
</svg>