<svg xmlns="http://www.w3.org/2000/svg" width="117" height="114" viewBox="0 0 117 114" fill="none">
  <path d="M117 114H87.7293L20.1397 34.454L18.9429 114H0L0.00919957 0H20.1397L117 114Z" fill="white"/>
  <path d="M109.48 41.9558C107.814 52.0343 102.457 60.618 93.832 66.2396L87.2875 70.8524L73.6646 54.8222L83.3295 47.9442C85.5294 46.376 87.3059 44.2759 88.3644 41.7999C89.423 39.3146 89.8004 36.5176 89.2849 33.5738C88.1803 27.2369 83.2651 21.9088 76.3892 21.0468L44.937 21.0193L27.08 0.00936048H74.5759C77.6779 0.00936048 80.7706 0.367024 83.7713 1.16487C89.4414 2.67802 94.5039 5.53925 98.7841 9.6752C107.621 18.213 111.477 29.8597 109.471 41.9558H109.48Z" fill="white"/>
  <path d="M60.2907 89.9088L26.1968 114L18.9429 114V94.0777L46.6863 73.9061L60.2907 89.9088Z" fill="white"/>
</svg>