<svg xmlns="http://www.w3.org/2000/svg" width="16" height="16" viewBox="0 0 16 16" fill="none">
  <path d="M8.40197 14.5327C9.64197 13.462 13.3346 9.99533 13.3346 6.66666C13.3346 5.25217 12.7727 3.89562 11.7725 2.89543C10.7723 1.89523 9.41579 1.33333 8.0013 1.33333C6.58681 1.33333 5.23026 1.89523 4.23007 2.89543C3.22987 3.89562 2.66797 5.25217 2.66797 6.66666C2.66797 9.99533 6.36064 13.462 7.60064 14.5327C7.71615 14.6195 7.85677 14.6665 8.0013 14.6665C8.14583 14.6665 8.28645 14.6195 8.40197 14.5327Z" stroke="#003B46" stroke-linecap="round" stroke-linejoin="round"/>
  <path d="M8 8.66666C9.10457 8.66666 10 7.77123 10 6.66666C10 5.56209 9.10457 4.66666 8 4.66666C6.89543 4.66666 6 5.56209 6 6.66666C6 7.77123 6.89543 8.66666 8 8.66666Z" stroke="#003B46" stroke-linecap="round" stroke-linejoin="round"/>
</svg>