<svg xmlns="http://www.w3.org/2000/svg" width="56" height="56" viewBox="0 0 56 56" fill="none">
  <path d="M53.1998 30.8C53.0156 34.154 52.0294 37.4148 50.3242 40.3088C48.619 43.2028 46.2444 45.6456 43.3998 47.432L27.9998 56L12.5998 47.432C9.7552 45.6456 7.38063 43.2028 5.67541 40.3088C3.97018 37.4148 2.98406 34.154 2.7998 30.8V8.4C12.2638 8.4 20.9998 5.264 27.9998 0C34.9998 5.292 43.7358 8.4 53.1998 8.4V30.8ZM27.9998 33.824L36.1758 39.536L33.2918 29.988L41.2438 23.968L31.2758 23.744L27.9998 14.336L24.7238 23.744L14.7558 23.968L22.6798 29.96L19.7958 39.48L27.9998 33.852V33.824Z" fill="#00ACC4"/>
</svg>