<svg width="24" height="24" viewBox="0 0 24 24" fill="none" xmlns="http://www.w3.org/2000/svg">
<g clip-path="url(#clip0_871_8)">
<path d="M18 2.475C16.2375 1.3875 14.2125 0.75 12 0.75V2.475H18Z" fill="#ED4C5C"/>
<path d="M12 4.20001H20.1C19.4625 3.56251 18.75 2.96251 18 2.47501H12V4.20001Z" fill="white"/>
<path d="M12 5.92501H21.4875C21.075 5.28751 20.625 4.72501 20.1375 4.20001H12V5.92501Z" fill="#ED4C5C"/>
<path d="M12 7.64999H22.3875C22.125 7.04999 21.825 6.44999 21.4875 5.92499H12V7.64999Z" fill="white"/>
<path d="M12 9.37499H22.95C22.8 8.77499 22.6125 8.21249 22.3875 7.64999H12V9.37499Z" fill="#ED4C5C"/>
<path d="M12 11.1375H23.2125C23.175 10.5375 23.0625 9.97501 22.95 9.41251H12V11.1375Z" fill="white"/>
<path d="M23.2125 11.1375H12V12H0.75C0.75 12.3 0.75 12.5625 0.7875 12.8625H23.2125C23.25 12.5625 23.25 12.3 23.25 12C23.25 11.7 23.25 11.4 23.2125 11.1375Z" fill="#ED4C5C"/>
<path d="M1.05001 14.5875H22.95C23.1 14.025 23.175 13.4625 23.2125 12.8625H0.787506C0.825006 13.425 0.900006 14.025 1.05001 14.5875Z" fill="white"/>
<path d="M1.61249 16.3125H22.3875C22.6125 15.75 22.8 15.1875 22.95 14.5875H1.04999C1.19999 15.1875 1.38749 15.75 1.61249 16.3125Z" fill="#ED4C5C"/>
<path d="M2.51249 18.0375H21.4875C21.825 17.475 22.125 16.9125 22.3875 16.3125H1.61249C1.87499 16.9125 2.17499 17.475 2.51249 18.0375Z" fill="white"/>
<path d="M3.86251 19.7625H20.1375C20.625 19.2375 21.1125 18.6375 21.4875 18.0375H2.51251C2.88751 18.675 3.37501 19.2375 3.86251 19.7625Z" fill="#ED4C5C"/>
<path d="M5.96249 21.4875H18.0375C18.825 21 19.5 20.4 20.1375 19.7625H3.86249C4.49999 20.4375 5.21249 21 5.96249 21.4875Z" fill="white"/>
<path d="M12 23.25C14.2125 23.25 16.275 22.6125 18.0375 21.4875H5.96249C7.72499 22.6125 9.78749 23.25 12 23.25Z" fill="#ED4C5C"/>
<path d="M6 2.475C5.2125 2.9625 4.5 3.5625 3.8625 4.2C3.3375 4.725 2.8875 5.325 2.5125 5.925C2.175 6.4875 1.8375 7.05 1.6125 7.65C1.3875 8.2125 1.2 8.775 1.05 9.375C0.9 9.9375 0.825 10.5 0.7875 11.1C0.75 11.4 0.75 11.7 0.75 12H12V0.75C9.7875 0.75 7.7625 1.3875 6 2.475Z" fill="#428BC1"/>
<path d="M9.37499 1.125L9.56249 1.6875H10.125L9.67499 2.0625L9.82499 2.625L9.37499 2.2875L8.92499 2.625L9.07499 2.0625L8.62499 1.6875H9.18749L9.37499 1.125ZM10.875 3.375L11.0625 3.9375H11.625L11.175 4.3125L11.325 4.875L10.875 4.5375L10.425 4.875L10.575 4.3125L10.125 3.9375H10.6875L10.875 3.375ZM7.87499 3.375L8.06249 3.9375H8.62499L8.17499 4.3125L8.32499 4.875L7.87499 4.5375L7.42499 4.875L7.57499 4.3125L7.12499 3.9375H7.68749L7.87499 3.375ZM9.37499 5.625L9.56249 6.1875H10.125L9.67499 6.5625L9.82499 7.125L9.37499 6.7875L8.92499 7.125L9.07499 6.5625L8.62499 6.1875H9.18749L9.37499 5.625ZM6.37499 5.625L6.56249 6.1875H7.12499L6.67499 6.5625L6.82499 7.125L6.37499 6.7875L5.92499 7.125L6.07499 6.5625L5.62499 6.1875H6.18749L6.37499 5.625ZM3.37499 5.625L3.56249 6.1875H4.12499L3.67499 6.5625L3.82499 7.125L3.37499 6.7875L2.92499 7.125L3.07499 6.5625L2.62499 6.1875H3.18749L3.37499 5.625ZM10.875 7.875L11.0625 8.4375H11.625L11.175 8.8125L11.325 9.375L10.875 9.0375L10.425 9.375L10.575 8.8125L10.125 8.4375H10.6875L10.875 7.875ZM7.87499 7.875L8.06249 8.4375H8.62499L8.17499 8.8125L8.32499 9.375L7.87499 9.0375L7.42499 9.375L7.57499 8.8125L7.12499 8.4375H7.68749L7.87499 7.875ZM4.87499 7.875L5.06249 8.4375H5.62499L5.17499 8.8125L5.32499 9.375L4.87499 9.0375L4.42499 9.375L4.57499 8.8125L4.12499 8.4375H4.68749L4.87499 7.875ZM9.37499 10.125L9.56249 10.6875H10.125L9.67499 11.0625L9.82499 11.625L9.37499 11.2875L8.92499 11.625L9.07499 11.0625L8.62499 10.6875H9.18749L9.37499 10.125ZM6.37499 10.125L6.56249 10.6875H7.12499L6.67499 11.0625L6.82499 11.625L6.37499 11.2875L5.92499 11.625L6.07499 11.0625L5.62499 10.6875H6.18749L6.37499 10.125ZM3.37499 10.125L3.56249 10.6875H4.12499L3.67499 11.0625L3.82499 11.625L3.37499 11.2875L2.92499 11.625L3.07499 11.0625L2.62499 10.6875H3.18749L3.37499 10.125ZM4.42499 4.875L4.87499 4.5375L5.32499 4.875L5.13749 4.3125L5.58749 3.9375H5.02499L4.87499 3.375L4.68749 3.9375H4.16249L4.61249 4.275L4.42499 4.875ZM1.42499 9.375L1.87499 9.0375L2.32499 9.375L2.13749 8.8125L2.58749 8.4375H2.06249L1.87499 7.875L1.68749 8.4375H1.31249C1.31249 8.475 1.27499 8.5125 1.27499 8.55L1.57499 8.775L1.42499 9.375Z" fill="white"/>
</g>
<defs>
<clipPath id="clip0_871_8">
<rect width="24" height="24" fill="white"/>
</clipPath>
</defs>
</svg>
